# xmcd
#
# Track frame offsets:
#	150
#	21620
#	44155
#	64480
#	75587
#	93597
#	110957
#	135085
#	150612
#	167725
#	191940
#	214092
#	237830
#
# Disc length: 3354 seconds
#
# Revision: 1
# Processed by: cddbd v1.5.2PL0 Copyright (c) Steve Scherf et al.
# Submitted via: audiograbber 1.83.01
#
DISCID=bf0d180d
DTITLE=Pete Alderton - Cover my Blues
DYEAR=2009
DGENRE=Blues
TTITLE0=Walking Blues
TTITLE1=Help Me
TTITLE2=Georgia On My Mind
TTITLE3=Don't Give a Damn
TTITLE4=Fever
TTITLE5=Ain't No Sunshine
TTITLE6=Little Red Rooster
TTITLE7=Runnung For Cover
TTITLE8=Summertime (feat. Michael Sajrawy)
TTITLE9=I'm Your Hoochie Coochie Man
TTITLE10=Cold Turkey
TTITLE11=Cover My Blues
TTITLE12=Additional
EXTD=Ozella Music Schloss Hamborn, D-33178 Borchen, www.ozellamusic.com
EXTT0=
EXTT1=
EXTT2=
EXTT3=
EXTT4=
EXTT5=
EXTT6=
EXTT7=
EXTT8=
EXTT9=
EXTT10=
EXTT11=
EXTT12=
PLAYORDER=
